<?xml version="1.0" encoding="UTF-8"?>

<svg fill="none" xmlns="http://www.w3.org/2000/svg">
  <symbol id="cv" width="50" height="50" viewBox="0 0 50 50">
    <path fill-rule="evenodd" clip-rule="evenodd" d="M6 48V2L8 0H31L44 13V48L42 50H8L6 48ZM9 3V47H41V14.5L29.5 3H9Z"/>
    <path d="M13 19.3471V20.6529L13.8471 21.5H28.15L28.9985 20.6515L29 20.6529V19.3471L28.9985 19.3485L28.15 18.5H13.8471L13 19.3471Z"/>
    <path d="M13 37.3471V38.6529L13.8471 39.5H28.15L28.9985 38.6515L29 38.6529V37.3471L28.9985 37.3485L28.15 36.5H13.8471L13 37.3471Z"/>
    <path d="M13 28.3471V29.6529L13.8471 30.5H36.1515L37 29.6515V28.3485L36.1515 27.5H13.8471L13 28.3471Z"/>
    <path d="M42.5 13V16H30L28 14V3H31V13H42.5Z"/>
  </symbol>
</svg>