<?xml version="1.0" encoding="UTF-8"?>

<svg fill="none" xmlns="http://www.w3.org/2000/svg">
  <symbol id="github" width="50" height="50" viewBox="0 0 50 50">
    <path d="M50 25.6261C50 31.2096 48.4104 36.2314 45.2311 40.6915C42.0519 45.1516 37.9449 48.2381 32.9102 49.9509C32.3242 50.0622 31.8956 49.9843 31.6243 49.7174C31.3531 49.4504 31.2174 49.1167 31.2174 48.7163V41.6758C31.2174 39.5181 30.6532 37.9387 29.5247 36.9377C30.7617 36.8042 31.8739 36.604 32.8613 36.337C33.8487 36.0701 34.8687 35.6363 35.9212 35.0357C36.9737 34.4351 37.8526 33.6955 38.5579 32.8168C39.2632 31.9381 39.8383 30.7703 40.2832 29.3132C40.7281 27.8562 40.9505 26.1823 40.9505 24.2914C40.9505 21.5998 40.0933 19.3086 38.3789 17.4178C39.1819 15.3935 39.0951 13.1245 38.1185 10.6108C37.5109 10.4106 36.6319 10.533 35.4818 10.9779C34.3316 11.4228 33.3333 11.9121 32.487 12.446L31.25 13.2468C29.2318 12.6685 27.1484 12.3793 25 12.3793C22.8516 12.3793 20.7682 12.6685 18.75 13.2468C18.4028 13.0021 17.9416 12.7018 17.3665 12.3459C16.7915 11.99 15.8854 11.5618 14.6484 11.0613C13.4115 10.5608 12.4783 10.4106 11.849 10.6108C10.8941 13.1245 10.8181 15.3935 11.6211 17.4178C9.90668 19.3086 9.04948 21.5998 9.04948 24.2914C9.04948 26.1823 9.27192 27.8506 9.7168 29.2965C10.1617 30.7425 10.7313 31.9103 11.4258 32.8001C12.1202 33.6899 12.9937 34.4351 14.0462 35.0357C15.0987 35.6363 16.1187 36.0701 17.1061 36.337C18.0935 36.604 19.2057 36.8042 20.4427 36.9377C19.5747 37.7385 19.043 38.8841 18.8477 40.3745C18.3919 40.5969 17.9036 40.7638 17.3828 40.875C16.862 40.9862 16.2435 41.0418 15.5273 41.0418C14.8112 41.0418 14.1005 40.8027 13.3952 40.3244C12.6899 39.8462 12.0877 39.151 11.5885 38.239C11.1762 37.5272 10.65 36.9488 10.0098 36.5039C9.36957 36.059 8.83247 35.792 8.39844 35.7031L7.7474 35.603C7.29167 35.603 6.977 35.653 6.80339 35.7531C6.62977 35.8532 6.57552 35.9811 6.64062 36.1368C6.70573 36.2926 6.80339 36.4483 6.93359 36.604C7.0638 36.7597 7.20486 36.8932 7.35677 37.0044L7.58464 37.1712C8.06207 37.3937 8.53407 37.8163 9.00065 38.4392C9.46723 39.0621 9.80903 39.6293 10.026 40.1409L10.3516 40.9084C10.6337 41.7537 11.1111 42.4377 11.7839 42.9605C12.4566 43.4832 13.1836 43.8169 13.9648 43.9615C14.7461 44.1061 15.5002 44.1839 16.2272 44.1951C16.9542 44.2062 17.5564 44.1673 18.0339 44.0783L18.7826 43.9448C18.7826 44.7901 18.788 45.78 18.7988 46.9145C18.8097 48.049 18.8151 48.6496 18.8151 48.7163C18.8151 49.1167 18.674 49.4504 18.3919 49.7174C18.1098 49.9843 17.6758 50.0622 17.0898 49.9509C12.0551 48.2381 7.94813 45.1516 4.76888 40.6915C1.58963 36.2314 0 31.2096 0 25.6261C0 20.9769 1.11762 16.6892 3.35286 12.763C5.58811 8.83679 8.62088 5.72806 12.4512 3.43684C16.2815 1.14561 20.4644 0 25 0C29.5356 0 33.7185 1.14561 37.5488 3.43684C41.3791 5.72806 44.4119 8.83679 46.6471 12.763C48.8824 16.6892 50 20.9769 50 25.6261Z"/>
  </symbol>
</svg>