<?xml version="1.0" encoding="UTF-8"?>

<svg fill="none" xmlns="http://www.w3.org/2000/svg">
  <symbol id="linkedin" width="50" height="50" viewBox="0 0 50 50">
    <path d="M41.894 41.904H34.786V30.766C34.786 28.11 34.732 24.692 31.082 24.692C27.376 24.692 26.81 27.582 26.81 30.57V41.904H19.702V19H26.53V22.122H26.622C27.576 20.322 29.896 18.422 33.362 18.422C40.564 18.422 41.896 23.162 41.896 29.332L41.894 41.904ZM11.674 15.866C9.386 15.866 7.548 14.014 7.548 11.736C7.548 9.46 9.388 7.61 11.674 7.61C13.954 7.61 15.802 9.46 15.802 11.736C15.802 14.014 13.952 15.866 11.674 15.866ZM15.238 41.904H8.11V19H15.238V41.904ZM45.45 1H4.542C2.584 1 1 2.548 1 4.458V45.542C1 47.454 2.584 49 4.542 49H45.444C47.4 49 49 47.454 49 45.542V4.458C49 2.548 47.4 1 45.444 1H45.45Z"/>
  </symbol>
</svg>