<?xml version="1.0" encoding="UTF-8"?>

<svg fill="none" xmlns="http://www.w3.org/2000/svg">
  <symbol id="location" width="50" height="50" viewBox="0 0 50 50">
    <path fill-rule="evenodd" clip-rule="evenodd" d="M43.5 19.4373C43.5 24.559 40.1778 29.8103 36.7865 35.1708C36.009 36.3998 35.2279 37.6345 34.4823 38.8747C33.4677 40.3045 32.483 41.7263 31.5075 43.1347L31.5073 43.1349L31.5073 43.135C29.8908 45.4689 28.3001 47.7656 26.642 50H23.3343C21.6552 47.7382 20.0445 45.4124 18.4077 43.049L18.4076 43.0488C17.4517 41.6685 16.4868 40.2754 15.4943 38.8747C14.7587 37.651 13.9892 36.4327 13.2233 35.2199L13.2232 35.2198C9.82696 29.8424 6.5 24.5746 6.5 19.4373C6.5 8.70239 14.5417 0 25.0117 0C35.4817 0 43.5 8.70239 43.5 19.4373ZM24.9883 30.6905C31.6116 30.6905 36.9808 25.1943 36.9808 18.4143C36.9808 11.6344 31.6116 6.13811 24.9883 6.13811C18.3651 6.13811 12.9959 11.6344 12.9959 18.4143C12.9959 25.1943 18.3651 30.6905 24.9883 30.6905ZM24.9883 24.0409C28.024 24.0409 30.4849 21.5218 30.4849 18.4143C30.4849 15.3068 28.024 12.7877 24.9883 12.7877C21.9527 12.7877 19.4918 15.3068 19.4918 18.4143C19.4918 21.5218 21.9527 24.0409 24.9883 24.0409Z"/>
  </symbol>
</svg>