<?xml version="1.0" encoding="utf-8"?>

<svg fill="none" xmlns="http://www.w3.org/2000/svg">
  <symbol id="sun" width="50" height="50" viewBox="0 0 50 50">
    <path d="M22.8516 2.53906H27.1484V11.5234H22.8516V2.53906ZM22.8516 38.4766H27.1484V47.4609H22.8516V38.4766ZM33.0103 13.9509L39.3632 7.59795L42.4016 10.6363L36.0486 16.9893L33.0103 13.9509ZM7.59912 39.3627L13.9521 33.0098L16.9904 36.0481L10.6375 42.4011L7.59912 39.3627ZM38.4766 22.8516H47.4609V27.1484H38.4766V22.8516ZM2.53906 22.8516H11.5234V27.1484H2.53906V22.8516ZM33.0106 36.0488L36.0489 33.0105L42.4019 39.3634L39.3636 42.4017L33.0106 36.0488ZM7.59785 10.6367L10.6362 7.59834L16.9892 13.9513L13.9508 16.9896L7.59785 10.6367ZM25 34.9609C23.0299 34.9609 21.1041 34.3767 19.466 33.2822C17.8279 32.1877 16.5512 30.632 15.7973 28.8119C15.0434 26.9918 14.8461 24.9889 15.2305 23.0567C15.6148 21.1245 16.5635 19.3496 17.9566 17.9566C19.3496 16.5635 21.1245 15.6148 23.0567 15.2305C24.9889 14.8461 26.9918 15.0434 28.8119 15.7973C30.632 16.5512 32.1877 17.8279 33.2822 19.466C34.3767 21.1041 34.9609 23.0299 34.9609 25C34.9578 27.6409 33.9074 30.1727 32.04 32.04C30.1727 33.9074 27.6409 34.9578 25 34.9609Z"/>
  </symbol>
</svg>
